<?xml version="1.0" standalone="no"?>
<!DOCTYPE svg PUBLIC "-//W3C//DTD SVG 20010904//EN"
 "http://www.w3.org/TR/2001/REC-SVG-20010904/DTD/svg10.dtd">
<svg version="1.0" xmlns="http://www.w3.org/2000/svg"
 width="512.000000pt" height="512.000000pt" viewBox="0 0 512.000000 512.000000"
 preserveAspectRatio="xMidYMid meet">
<metadata>
Created by potrace 1.11, written by Peter Selinger 2001-2013
</metadata>
<g transform="translate(0.000000,512.000000) scale(0.100000,-0.100000)"
fill="#000000" stroke="none">
<path d="M575 5105 c-221 -48 -413 -200 -504 -398 -55 -118 -66 -171 -65 -312
1 -112 5 -141 27 -210 81 -248 281 -429 538 -489 80 -18 254 -14 334 8 153 42
306 149 401 280 129 177 168 432 96 639 -41 121 -84 189 -177 282 -93 93 -161
135 -282 178 -74 25 -106 30 -198 33 -65 1 -135 -3 -170 -11z"/>
<path d="M2335 5105 c-272 -60 -486 -268 -553 -535 -14 -56 -19 -105 -17 -190
2 -99 6 -128 32 -203 87 -250 276 -420 535 -481 54 -13 214 -15 1133 -13
l1070 2 80 27 c244 83 423 275 483 518 14 55 19 105 17 190 -4 198 -66 341
-210 485 -92 92 -159 135 -282 179 l-88 31 -1070 2 c-860 1 -1082 -1 -1130
-12z"/>
<path d="M610 3273 c-63 -10 -142 -37 -220 -76 -66 -33 -103 -60 -171 -127
-96 -94 -146 -175 -187 -298 -22 -67 -26 -94 -26 -212 0 -125 2 -141 31 -223
40 -113 83 -184 162 -269 78 -83 184 -151 299 -191 152 -52 337 -46 493 18
205 83 361 259 425 480 18 62 25 244 12 315 -26 142 -92 264 -203 375 -142
142 -292 207 -485 210 -58 1 -116 0 -130 -2z"/>
<path d="M2370 3273 c-64 -11 -142 -38 -220 -76 -120 -58 -247 -186 -308 -307
-65 -132 -77 -184 -76 -335 1 -112 5 -141 27 -210 39 -117 90 -199 188 -296
67 -67 104 -94 170 -127 172 -85 97 -81 1284 -81 1125 0 1093 -1 1230 50 141
53 299 195 372 337 58 112 77 194 77 337 0 103 -4 132 -27 205 -37 118 -88
202 -182 295 -92 92 -159 135 -282 179 l-88 31 -1070 1 c-588 1 -1081 0 -1095
-3z"/>
<path d="M610 1433 c-160 -27 -308 -108 -419 -230 -74 -80 -119 -158 -157
-268 -25 -72 -28 -94 -28 -215 0 -126 2 -141 31 -223 38 -108 82 -183 153
-260 137 -149 300 -225 500 -233 252 -9 464 94 616 300 129 175 168 432 96
639 -41 121 -84 189 -177 282 -142 142 -286 205 -480 210 -60 1 -121 1 -135
-2z"/>
<path d="M2370 1433 c-270 -46 -491 -238 -578 -501 -22 -67 -25 -95 -25 -212
0 -119 3 -144 26 -215 85 -257 303 -448 562 -493 22 -4 522 -7 1110 -7 l1070
0 80 27 c244 83 423 275 483 518 14 55 19 105 17 190 -4 198 -66 341 -210 485
-92 92 -159 135 -282 179 l-88 31 -1070 1 c-588 1 -1081 0 -1095 -3z"/>
</g>
</svg>
